<svg width="40" height="40" viewBox="0 0 24 24" xmlns="http://www.w3.org/2000/svg">
  <defs>
    <linearGradient id="roomieGrad" x1="0%" y1="0%" x2="100%" y2="0%">
      <stop offset="0%" style="stop-color:#0077b6;stop-opacity:1" />
      <stop offset="100%" style="stop-color:#03045e;stop-opacity:1" />
    </linearGradient>
  </defs>
  <!-- Modern stylized house/room icon -->
  <g transform="translate(2, 2)">
    <!-- House base -->
    <path d="M 2 12 L 10 4 L 18 12 L 18 20 L 2 20 Z" fill="url(#roomieGrad)" stroke="url(#roomieGrad)" stroke-width="0.5"/>
    <!-- Door -->
    <rect x="7" y="15" width="3" height="5" fill="white" opacity="0.9" rx="0.5"/>
    <!-- Door handle -->
    <circle cx="9.5" cy="17.5" r="0.3" fill="url(#roomieGrad)"/>
    <!-- Window left -->
    <rect x="3" y="13" width="2.5" height="2.5" fill="white" opacity="0.8" rx="0.3"/>
    <!-- Window right -->
    <rect x="12.5" y="13" width="2.5" height="2.5" fill="white" opacity="0.8" rx="0.3"/>
    <!-- Window cross lines -->
    <line x1="4.25" y1="13" x2="4.25" y2="15.5" stroke="url(#roomieGrad)" stroke-width="0.3" opacity="0.6"/>
    <line x1="3" y1="14.25" x2="5.5" y2="14.25" stroke="url(#roomieGrad)" stroke-width="0.3" opacity="0.6"/>
    <line x1="13.75" y1="13" x2="13.75" y2="15.5" stroke="url(#roomieGrad)" stroke-width="0.3" opacity="0.6"/>
    <line x1="12.5" y1="14.25" x2="15" y2="14.25" stroke="url(#roomieGrad)" stroke-width="0.3" opacity="0.6"/>
    <!-- Roof accent -->
    <path d="M 10 4 L 12 2 L 10 4 L 8 2 Z" fill="url(#roomieGrad)" opacity="0.7"/>
  </g>
</svg>
